# xmcd CD database file
#
# Track frame offsets:
#	150
#	42150
#	68475
#	97425
#	120450
#	162900
#	194137
#	226275
#
# Disc length: 3444 seconds
#
# Revision: 0
# Processed by: cddbd v1.5.2PL0 Copyright (c) Steve Scherf et al.
# Submitted via: CDex 1.70beta2
#
DISCID=6c0d7208
DTITLE=茅野　嘉亮 - COSMOLOG1
DYEAR=2011
DGENRE=Jazz
TTITLE0=SPACE ADVENTURE
TTITLE1=HI-TECH JAZZ
TTITLE2=AWAKENING FEAT KAREN AOKI
TTITLE3=AROUNDO THE WORLD
TTITLE4=WALKING IN COSMOS
TTITLE5=MAIDEN VOYAGE
TTITLE6=MEN IN BLACK
TTITLE7=SPACE COWBOY FEAT SATORU KURIHARA
EXTD=YEAR: 2011
EXTT0=
EXTT1=
EXTT2=
EXTT3=
EXTT4=
EXTT5=
EXTT6=
EXTT7=
PLAYORDER=
